<?xml version="1.0" encoding="utf-8"?>
<!-- Generator: Adobe Illustrator 19.0.0, SVG Export Plug-In . SVG Version: 6.00 Build 0)  -->
<svg version="1.1" id="Layer_1" xmlns="http://www.w3.org/2000/svg" xmlns:xlink="http://www.w3.org/1999/xlink" x="0px" y="0px"
	 viewBox="0 0 96 96" style="enable-background:new 0 0 96 96;" xml:space="preserve">
<g id="XMLID_1_">
	<path id="XMLID_7_" d="M66.3,20.5h-41c-2.7,0-4.9,2.2-4.9,4.9v45.3c0,2.7,2.2,4.9,4.9,4.9h45.3c2.7,0,4.9-2.2,4.9-4.9V29.5
		L66.3,20.5z M46.4,23.7v12.9h9.7V23.7h3.2v16.2H33.4V23.7H46.4z M30.2,72.3V52.9h35.6v19.4H30.2z M72.3,70.6c0,0.9-0.7,1.6-1.6,1.6
		H69V49.6H27v22.6h-1.6c-0.9,0-1.6-0.7-1.6-1.6V25.4c0-0.9,0.7-1.6,1.6-1.6h4.9v19.4h32.4V23.7H65l7.3,7.1V70.6z"/>
</g>
</svg>
